<svg xmlns="http://www.w3.org/2000/svg" xmlns:xlink="http://www.w3.org/1999/xlink" width="512" height="512" class="icon" p-id="12253" t="1602768893364" version="1.1" viewBox="0 0 1024 1024"><defs><style type="text/css"/></defs><path fill="#000" d="M810.666667 490.666667v42.666666a21.333333 21.333333 0 0 1-21.333334 21.333334H554.666667v234.666666a21.333333 21.333333 0 0 1-21.333334 21.333334h-42.666666a21.333333 21.333333 0 0 1-21.333334-21.333334V554.666667H234.666667a21.333333 21.333333 0 0 1-21.333334-21.333334v-42.666666a21.333333 21.333333 0 0 1 21.333334-21.333334H469.333333V234.666667a21.333333 21.333333 0 0 1 21.333334-21.333334h42.666666a21.333333 21.333333 0 0 1 21.333334 21.333334V469.333333h234.666666a21.333333 21.333333 0 0 1 21.333334 21.333334z" p-id="12254"/></svg>