<svg xmlns="http://www.w3.org/2000/svg" xmlns:xlink="http://www.w3.org/1999/xlink" width="512" height="512" class="icon" p-id="12426" t="1602768905506" version="1.1" viewBox="0 0 1024 1024"><defs><style type="text/css"/></defs><path fill="#000" d="M761.6 701.44a21.333333 21.333333 0 0 1 0 30.293333l-29.866667 29.866667a21.333333 21.333333 0 0 1-30.293333 0L512 572.16l-189.44 189.44a21.333333 21.333333 0 0 1-30.293333 0l-29.866667-29.866667a21.333333 21.333333 0 0 1 0-30.293333L451.84 512 262.4 322.56a21.333333 21.333333 0 0 1 0-30.293333l29.866667-29.866667a21.333333 21.333333 0 0 1 30.293333 0L512 451.84l189.44-189.44a21.333333 21.333333 0 0 1 30.293333 0l29.866667 29.866667a21.333333 21.333333 0 0 1 0 30.293333L572.16 512z" p-id="12427"/></svg>