<svg xmlns="http://www.w3.org/2000/svg" xmlns:xlink="http://www.w3.org/1999/xlink" width="512" height="512" class="icon" p-id="1738" t="1607931217887" version="1.1" viewBox="0 0 1024 1024"><defs><style type="text/css"/></defs><path fill="#000" d="M344.352 403.072l-160.8 0 243.296 243.264 243.296-243.264-157.376 0c8.832-338.976-299.168-376.736-491.424-198.88 130.528-72.096 329.664-84.192 323.04 198.88l0 0zM937.76 66.24l-524.896 0c26.976 13.92 51.232 31.904 72.512 53.76 27.872 28.576 49.536 55.456 68.128 120.448l395.04 0 0 701.088-827.104 0 0-683.936c0 0-16.768-20.128-52.96-2.496l0 680.448c0 35.904 29.088 64.864 64.928 64.864l804.384 0c35.872 0 64.896-28.96 64.896-64.864l0-804.384c0-35.84-29.024-64.928-64.928-64.928l0 0z" p-id="1739"/></svg>