<svg xmlns="http://www.w3.org/2000/svg" xmlns:xlink="http://www.w3.org/1999/xlink" width="512" height="512" class="icon" p-id="11726" t="1603198968128" version="1.1" viewBox="0 0 1024 1024"><defs><style type="text/css"/></defs><path fill="#000" d="M391.253333 213.333333l47.786667 47.786667a128 128 0 0 0 90.453333 37.546667H725.333333v384H128V213.333333h263.253333m17.92-85.333333H128a85.333333 85.333333 0 0 0-85.333333 85.333333v469.333334a85.333333 85.333333 0 0 0 85.333333 85.333333h597.333333a85.333333 85.333333 0 0 0 85.333334-85.333333V298.666667a85.333333 85.333333 0 0 0-85.333334-85.333334h-195.84a42.666667 42.666667 0 0 1-29.866666-12.373333l-60.586667-60.586667a42.666667 42.666667 0 0 0-29.866667-12.373333zM896 384v384a85.333333 85.333333 0 0 1-85.333333 85.333333H213.333333a85.333333 85.333333 0 0 0 85.333334 85.333334h512a170.666667 170.666667 0 0 0 170.666666-170.666667v-298.666667a85.333333 85.333333 0 0 0-85.333333-85.333333z" p-id="11727"/></svg>