<svg xmlns="http://www.w3.org/2000/svg" xmlns:xlink="http://www.w3.org/1999/xlink" width="512" height="512" class="icon" p-id="2001" t="1618368321416" version="1.1" viewBox="0 0 1024 1024"><defs><style type="text/css"/></defs><path fill="#000" d="M128 256 64 256 64 192l64 0L128 256zM320 384 256 384l0 64 64 0L320 384zM320 576 256 576l0 64 64 0L320 576zM320 768 256 768l0 64 64 0L320 768zM896 224C896 206.336 881.664 192 864 192l-640 0C206.336 192 192 206.336 192 224l0 0C192 241.664 206.336 256 224 256l640 0C881.664 256 896 241.664 896 224L896 224zM896 416C896 398.336 881.664 384 864 384l-448 0C398.336 384 384 398.336 384 416l0 0C384 433.664 398.336 448 416 448l448 0C881.664 448 896 433.664 896 416L896 416zM896 608C896 590.336 881.664 576 864 576l-448 0C398.336 576 384 590.336 384 608l0 0C384 625.664 398.336 640 416 640l448 0C881.664 640 896 625.664 896 608L896 608zM896 800c0-17.664-14.336-32-32-32l-448 0C398.336 768 384 782.336 384 800l0 0C384 817.664 398.336 832 416 832l448 0C881.664 832 896 817.664 896 800L896 800z" p-id="2002"/></svg>