<svg xmlns="http://www.w3.org/2000/svg" width="512" height="512" class="icon" p-id="11133" t="1600002855088" version="1.1" viewBox="0 0 1024 1024"><path fill="#000" d="M0 64l0 896 1024 0L1024 64 0 64zM384 640l0-192 256 0 0 192L384 640zM640 704l0 192L384 896l0-192L640 704zM640 192l0 192L384 384 384 192 640 192zM320 192l0 192L64 384 64 192 320 192zM64 448l256 0 0 192L64 640 64 448zM704 448l256 0 0 192L704 640 704 448zM704 384 704 192l256 0 0 192L704 384zM64 704l256 0 0 192L64 896 64 704zM704 896l0-192 256 0 0 192L704 896z" p-id="11134"/></svg>