<svg xmlns="http://www.w3.org/2000/svg" xmlns:xlink="http://www.w3.org/1999/xlink" width="512" height="512" class="icon" p-id="7578" t="1609914714422" version="1.1" viewBox="0 0 1024 1024"><defs><style type="text/css"/></defs><path fill="#000" d="M516.551 695.182c0 5.006 3.869 9.102 8.533 9.102h210.49c4.664 0 8.533-4.096 8.533-9.102V640.57c0-5.006-3.869-9.102-8.534-9.102H525.084c-4.664 0-8.533 4.096-8.533 9.102v54.613z m-221.753 6.94L513.252 518.94c4.323-3.64 4.323-10.353 0-13.994L294.798 321.877c-5.916-5.006-14.905-0.796-14.905 6.94v71.34c0 2.73 1.138 5.233 3.3 6.94L408.12 512 283.193 616.903c-2.048 1.707-3.3 4.324-3.3 6.94v71.34c0 7.736 8.989 11.946 14.905 6.94z" p-id="7579"/><path fill="#000" d="M930.702 56.889H93.298c-20.139 0-36.41 16.27-36.41 36.409v837.404c0 20.139 16.271 36.41 36.41 36.41h837.404c20.139 0 36.41-16.271 36.41-36.41V93.298c0-20.139-16.271-36.41-36.41-36.41z m-45.51 828.302H138.808V138.81H885.19V885.19z" p-id="7580"/></svg>